<svg width="1577" height="670" viewBox="0 0 1577 670" fill="none" xmlns="http://www.w3.org/2000/svg">
<path d="M1263 564L1378 449.5M1263 564L1158 487M1263 564L968.5 595.5M1378 449.5L1158 487M1378 449.5L1240.47 150.228M1158 487L682.325 427.823M1158 487L1240.47 150.228M1158 487L1095.29 256.747M1158 487L812.451 133.013M1158 487L968.5 595.5M968.5 595.5L638.28 668.809M968.5 595.5H694M638.28 668.809L694 595.5M638.28 668.809L220.224 493.003M638.28 668.809L465.5 551.5M694 595.5L682.325 427.823M682.325 427.823L812.451 133.013M682.325 427.823L531.766 97.5063M682.325 427.823L399.49 234.152M682.325 427.823L118.805 268.582M1240.47 150.228L1487 216.5L1266.28 60.9241M1266.28 60.9241L1095.29 256.747M1266.28 60.9241L812.451 133.013M1266.28 60.9241L1329.73 0.670898L1576 79.2152M1095.29 256.747L812.451 133.013M812.451 133.013L531.766 97.5063M220.224 493.003L208.913 666.678M220.224 493.003L118.805 268.582M220.224 493.003L1.58386 560.165L208.913 666.678M208.913 666.678L465.5 551.5M465.5 551.5L118.805 268.582M118.805 268.582L188.707 21.1139M531.766 97.5063L399.49 234.152M531.766 97.5063L188.707 21.1139M399.49 234.152L188.707 21.1139" stroke="#AE74E7" stroke-opacity="0.32"/>
</svg>
