<svg width="2664" height="1224" viewBox="0 0 2664 1224" fill="none" xmlns="http://www.w3.org/2000/svg">
<path d="M719.412 738.556L155.769 954.654L764.308 877.808" stroke="white" stroke-opacity="0.08"/>
<path d="M4.24939 843.446L156.461 954.654" stroke="white" stroke-opacity="0.24"/>
<path d="M3.46143 843.192L174.299 442.955C172.322 447.63 161.995 786.022 156.461 954.654" stroke="white" stroke-opacity="0.24"/>
<path d="M1621.38 222.885L2129.08 458.847" stroke="white" stroke-opacity="0.08"/>
<path d="M2124.31 457.258L2197.42 792.59L2656.71 608.237L2432.62 482.686L2124.31 457.258Z" stroke="white" stroke-opacity="0.24"/>
<path d="M2432.77 483.192L2196.69 791.962" stroke="white" stroke-opacity="0.08"/>
<path d="M1879.57 1018.26L2196.69 792.654M1879.57 1018.26L1624.85 976.808L1644.36 1062.76M1879.57 1018.26L1644.36 1062.76M1879.57 1018.26L1491.23 741.423L1644.36 1062.76M1879.57 1018.26L1657 521" stroke="white" stroke-opacity="0.24"/>
<path d="M738.692 364.808L764.308 878.5" stroke="white" stroke-opacity="0.16"/>
<path d="M719.307 738.654L763.911 878.409M763.911 878.409L1232.74 978.532L1077.92 436.115L763.911 878.409Z" stroke="white" stroke-opacity="0.08"/>
<path d="M1232.74 975.354L1491.23 742.116L1624.85 976.115L1232.74 975.354Z" stroke="white" stroke-opacity="0.24"/>
<path d="M738.692 364.808L719.412 740.145L1078.58 436.598" stroke="white" stroke-opacity="0.08"/>
<path d="M1886 717L2123 456.5" stroke="white" stroke-opacity="0.16"/>
<path d="M1885.5 717L2036 631L1654.76 524.64" stroke="white" stroke-opacity="0.08"/>
<path d="M987.996 284.03L738.483 365.082L1078.58 436.598L987.996 284.03Z" stroke="white" stroke-opacity="0.32"/>
<path d="M1621.38 223.577L1490.2 741.734L1076.99 436.598L1621.38 223.577ZM1621.38 223.577L1442.52 1.14331M1621.38 223.577L1657.5 522M1621.38 223.577L1468 409" stroke="white" stroke-opacity="0.08"/>
<path d="M721.002 740.144L1232.74 976.943" stroke="white" stroke-opacity="0.08"/>
<path d="M156.461 954.654L60.923 1219.81L3.46143 843.192" stroke="white" stroke-opacity="0.08"/>
<circle r="2.5" transform="matrix(1 0 0 -1 155.327 955.167)" fill="white"/>
<circle r="2.5" transform="matrix(1 0 0 -1 60.6537 1221.46)" fill="white"/>
<circle r="2.5" transform="matrix(1 0 0 -1 172.808 446.077)" fill="white"/>
<circle r="2.5" transform="matrix(1 0 0 -1 2.75854 843.918)" fill="white"/>
<circle r="2.5" transform="matrix(1 0 0 -1 764.038 879.461)" fill="white"/>
<circle r="2.5" transform="matrix(1 0 0 -1 1232.84 977.415)" fill="white"/>
<circle r="2.5" transform="matrix(1 0 0 -1 1646.04 1066.41)" fill="white"/>
<circle r="2.5" transform="matrix(1 0 0 -1 1623.79 977.415)" fill="white"/>
<circle r="2.5" transform="matrix(1 0 0 -1 1878.07 1018.74)" fill="white"/>
<circle r="2.5" transform="matrix(1 0 0 -1 1886.5 716.5)" fill="white"/>
<circle r="2.5" transform="matrix(1 0 0 -1 2035.5 631.5)" fill="white"/>
<circle r="2.5" transform="matrix(1 0 0 -1 2195.92 793.062)" fill="white"/>
<circle r="2.5" transform="matrix(1 0 0 -1 2122.82 456.141)" fill="white"/>
<circle r="2.5" transform="matrix(1 0 0 -1 2432.5 483.462)" fill="white"/>
<circle r="2.5" transform="matrix(1 0 0 -1 2656.81 608.709)" fill="white"/>
<circle r="2.5" transform="matrix(1 0 0 -1 1490.3 742.206)" fill="white"/>
<circle r="2.5" transform="matrix(1 0 0 -1 1620.62 224.111)" fill="white"/>
<circle r="2.5" transform="matrix(1 0 0 -1 1441.12 3)" fill="white"/>
<circle r="2.5" transform="matrix(1 0 0 -1 718.346 739.615)" fill="white"/>
<circle r="2.5" transform="matrix(1 0 0 -1 737.731 365.769)" fill="white"/>
<circle r="2.5" transform="matrix(1 0 0 -1 986.961 285.462)" fill="white"/>
<circle r="2.5" transform="matrix(1 0 0 -1 1077.09 437.07)" fill="white"/>
</svg>
